PathFileType	4	(X/Y/Z)	SUBJ51_1_walk_RCNL2025.trc
DataRate	CameraRate	NumFrames	NumMarkers	Units	OrigDataRate	OrigDataStartFrame	OrigNumFrames
100	100	11	25	mm	100	121	241
Frame#	Time	R_Shoulder			L_Shoulder			C7			J_Notch			R_Elbow			L_Elbow			R_Wrist			L_Wrist			R_Asis			L_Asis			Sacral			Thoracic			Sternum			R_Thigh_Lateral			R_Knee_Lateral			R_Shank_Lateral			R_Ankle_Lateral			R_Heel			R_Toe			L_Thigh_Lateral			L_Knee_Lateral			L_Shank_Lateral			L_Ankle_Lateral			L_Heel			L_Toe		
		X1	Y1	Z1	X2	Y2	Z2	X3	Y3	Z3	X4	Y4	Z4	X5	Y5	Z5	X6	Y6	Z6	X7	Y7	Z7	X8	Y8	Z8	X9	Y9	Z9	X10	Y10	Z10	X11	Y11	Z11	X12	Y12	Z12	X13	Y13	Z13	X14	Y14	Z14	X15	Y15	Z15	X16	Y16	Z16	X17	Y17	Z17	X18	Y18	Z18	X19	Y19	Z19	X20	Y20	Z20	X21	Y21	Z21	X22	Y22	Z22	X23	Y23	Z23	X24	Y24	Z24	X25	Y25	Z25
121	1.20000000	326.669250	1455.477295	-8.352326	274.754333	1445.616699	-459.833221	217.200958	1565.605591	-237.051239	359.604126	1445.312378	-237.518661	348.264343	1188.024292	140.665161	93.106270	1165.216675	-511.514771	565.231750	1031.686432	121.987953	37.450765	908.248322	-492.892838	315.298553	1012.294556	-74.872490	355.965179	991.161194	-309.870300	122.592850	1039.232300	-236.409851	111.977936	1362.612915	-225.751022	394.071228	1215.423462	-223.788116	161.390656	626.389160	-16.892370	101.410553	512.450867	-71.658943	-19.497011	322.215393	-23.828960	-112.202545	109.882393	-155.353348	-158.933197	119.564209	-212.268524	34.145321	45.852150	-174.374329	383.435516	613.882812	-431.182281	425.099426	508.446075	-378.040253	474.266602	324.733948	-419.724701	597.857788	79.673630	-320.011719	555.256409	65.444717	-257.070984	753.700317	118.989273	-310.741882
122	1.21000000	341.088287	1454.460327	-9.255592	290.133972	1443.081909	-460.907837	232.112350	1563.865967	-238.669846	374.686737	1443.640503	-238.435699	361.576416	1187.506958	140.600845	107.570419	1163.177612	-511.813171	579.009705	1032.072937	121.830933	50.788941	906.405457	-493.123291	330.173340	1010.268311	-74.841721	372.094604	990.268188	-309.758392	138.342194	1037.458008	-237.372162	127.141777	1360.863892	-226.880890	409.379669	1213.791016	-223.712051	174.449692	625.038452	-16.787567	113.797287	511.353058	-71.354271	-10.843830	323.602600	-23.080910	-109.666969	113.960976	-153.634094	-156.321640	125.065941	-210.278992	34.686878	45.803299	-173.927673	402.306793	614.339661	-429.973450	442.058655	507.743988	-377.121704	489.408203	322.992798	-417.725250	608.280518	77.083260	-316.802246	564.818237	64.113068	-254.150879	764.513855	113.203087	-305.880615
123	1.22000000	355.565582	1453.553101	-10.147994	305.592072	1440.705200	-462.023804	247.108185	1562.354248	-240.353516	389.865814	1442.216064	-239.412094	374.453522	1186.898560	140.390594	122.548393	1161.052734	-512.229309	592.093811	1031.989563	121.591141	65.066610	904.392670	-493.529388	345.375397	1008.341980	-74.887421	388.420410	989.763672	-309.714508	154.308640	1035.875000	-238.218033	142.419540	1359.340698	-228.025238	424.910645	1212.394531	-223.745758	188.203888	623.620178	-16.714737	126.997185	510.185303	-71.052658	-1.568066	325.208099	-22.278131	-106.629112	118.452606	-151.764557	-153.092697	131.188141	-208.138916	35.330109	45.712860	-173.466919	421.453979	615.246399	-428.848358	459.286591	507.444336	-376.453430	504.498688	321.566803	-416.068451	616.764160	74.275291	-313.931946	572.291016	63.076946	-251.606079	773.505127	105.721626	-301.237000
124	1.23000000	370.103638	1452.789551	-11.034639	321.119568	1438.539673	-463.172119	262.179718	1561.139648	-242.103119	405.128021	1441.108032	-240.444366	386.901245	1186.231567	140.023071	138.041656	1158.878296	-512.750916	604.473328	1031.431610	121.273071	80.280346	902.251587	-494.124130	360.896240	1006.552490	-75.010620	404.885651	989.700317	-309.710266	170.436111	1034.566772	-238.903839	157.791931	1358.115967	-229.181107	440.649719	1211.298096	-223.886490	202.712540	622.148682	-16.648493	141.120605	508.960175	-70.740906	8.404470	327.099548	-21.440804	-102.925484	123.407234	-149.785278	-149.032059	137.996658	-205.916489	36.093536	45.562527	-173.012329	440.595978	616.520813	-427.864014	476.625793	507.593597	-376.063538	519.704224	320.651367	-414.875488	623.878540	71.580490	-311.658630	578.243774	62.545696	-249.750488	781.185608	97.106979	-296.927551
125	1.24000000	384.707672	1452.225708	-11.919683	336.714111	1436.645264	-464.334473	277.319214	1560.293945	-243.915604	420.454468	1440.388672	-241.524689	398.929810	1185.557495	139.477341	154.063934	1156.702148	-513.362671	616.130402	1030.402863	120.880859	96.431511	900.035461	-494.912170	376.709930	1004.948303	-75.227676	421.406799	990.124695	-309.736176	186.653839	1033.611694	-239.393692	173.235260	1357.252319	-230.336365	456.563354	1210.572021	-224.118942	218.063721	620.646240	-16.558329	156.304596	507.689026	-70.392326	19.194313	329.346069	-20.576948	-98.349564	128.876663	-147.735886	-143.881195	145.545624	-203.681488	37.004433	45.340183	-172.589966	459.547638	618.133240	-427.085480	493.984009	508.260620	-375.962372	535.129883	320.429199	-414.247559	630.067627	69.260895	-310.148804	583.132935	62.632259	-248.789139	787.917053	87.998726	-293.099304
126	1.25000000	399.384155	1451.935547	-12.805153	352.378967	1435.083862	-465.484741	292.517334	1559.877319	-245.780014	435.820465	1440.117920	-242.639755	410.552490	1184.943848	138.725357	170.635880	1154.582764	-514.047424	627.040710	1028.915710	120.417011	113.530807	897.804321	-495.888504	392.770782	1003.586304	-75.569618	437.890747	991.066833	-309.808746	202.889801	1033.062500	-239.665680	188.720871	1356.786743	-231.466782	472.594421	1210.278198	-224.418533	234.375031	619.134888	-16.408087	172.706940	506.372284	-69.963882	30.969275	332.000214	-19.675034	-92.659500	134.908356	-145.650589	-137.346878	153.866409	-201.500076	38.102898	45.048813	-172.231384	478.224304	620.076965	-426.568909	511.339600	509.491302	-376.122711	550.819092	321.008270	-414.241180	635.556458	67.455841	-309.407623	587.240234	63.299255	-248.724365	793.827087	79.029205	-289.890656
127	1.26000000	414.136536	1451.999023	-13.692087	368.120087	1433.911865	-466.593719	307.755005	1559.920654	-247.670746	451.196747	1440.324463	-243.769562	421.786072	1184.465576	137.736465	187.774307	1152.584351	-514.789734	637.176178	1026.991089	119.880653	131.599609	895.617889	-497.042068	409.016479	1002.522461	-76.076027	454.254852	992.530151	-309.970001	219.077576	1032.927002	-239.718811	204.215225	1356.724365	-232.539124	488.663696	1210.453613	-224.755844	251.781708	617.629761	-16.156982	190.485855	504.995514	-69.396690	43.930683	335.077423	-18.704659	-85.590584	141.536423	-143.555664	-129.117722	162.957474	-199.429291	39.443821	44.717968	-171.969757	496.640411	622.339050	-426.335175	528.691101	511.253296	-376.463562	566.723572	322.348083	-414.800690	640.372070	66.193115	-309.274567	590.699829	64.385460	-249.345551	798.862000	70.735603	-287.372925
128	1.27000000	428.960236	1452.485840	-14.582524	383.941254	1433.170898	-467.633942	322.996735	1560.412109	-249.544540	466.552277	1440.993408	-244.887131	432.652740	1184.191895	136.484909	205.479248	1150.768433	-515.578796	646.510284	1024.655731	119.266106	150.665108	893.529785	-498.358017	425.374359	1001.800049	-76.786461	470.439758	994.485291	-310.278412	235.156357	1033.165039	-239.577133	219.681931	1357.041870	-233.519974	504.678619	1211.096924	-225.099808	270.410492	616.137695	-15.764719	209.767120	503.535095	-68.625748	58.287045	338.540741	-17.625996	-76.877838	148.771515	-141.464706	-118.891083	172.778473	-197.505539	41.097778	44.416042	-171.830185	514.860657	624.880066	-426.353485	545.966125	513.409546	-376.860291	582.637695	324.236328	-415.722412	644.474609	65.436340	-309.492249	593.579956	65.694496	-250.330154	802.949829	63.505436	-285.507690
129	1.28000000	443.835938	1453.436890	-15.478733	399.840546	1432.878784	-468.581879	338.194183	1561.297119	-251.347427	481.856384	1442.069092	-245.959595	443.181732	1184.171265	134.958267	223.723495	1149.183228	-516.410767	655.026917	1021.938965	118.562923	170.749306	891.582825	-499.816498	441.767120	1001.441956	-77.731651	486.407867	996.869568	-310.794495	251.071198	1033.703125	-239.290054	235.084702	1357.694946	-234.386414	520.546265	1212.163574	-225.420502	290.343170	614.663208	-15.201114	230.610718	501.972015	-67.599304	74.224266	342.300323	-16.400490	-66.299393	156.590454	-139.370178	-106.411118	183.251907	-195.727081	43.154678	44.260162	-171.816803	532.878845	627.607239	-426.545532	562.954651	515.740173	-377.182617	598.173889	326.351807	-416.721222	647.880066	65.114059	-309.795624	595.950439	67.063362	-251.377472	806.118164	57.555569	-284.139587
130	1.29000000	458.723572	1454.850464	-16.378616	415.809662	1433.025024	-469.419373	353.298828	1562.493774	-253.027969	497.079071	1443.470703	-246.950745	453.407074	1184.420410	133.163116	242.450455	1147.855103	-517.289978	662.727600	1018.869598	117.757957	191.857849	889.804535	-501.392120	458.116302	1001.449707	-78.924736	502.136963	999.589966	-311.566742	266.776978	1034.460449	-238.929596	250.389526	1358.625366	-235.134216	536.187439	1213.575317	-225.692841	311.578796	613.221008	-14.457330	252.990616	500.308655	-66.300064	91.879723	346.231903	-14.997444	-53.729534	164.929169	-137.238434	-91.509895	194.271973	-194.041748	45.735222	44.419785	-171.900375	550.489197	630.340454	-426.805634	579.320862	517.999207	-377.336090	612.860291	328.372925	-417.543182	650.675964	65.127480	-309.977814	597.894531	68.377243	-252.280075	808.487427	52.925484	-283.042725
131	1.30000000	473.561310	1456.677246	-17.269743	431.834381	1433.572876	-470.135071	368.274567	1563.915283	-254.548767	512.191711	1445.110840	-247.824936	463.361877	1184.921387	131.126175	261.582062	1146.785645	-518.227783	669.636200	1015.474701	116.838337	213.973282	888.204132	-503.056595	474.346466	1001.808044	-80.352905	517.620239	1002.529907	-312.619751	282.244263	1035.369629	-238.584290	265.566254	1359.772461	-235.779312	551.549866	1215.235962	-225.898758	334.009033	611.847046	-13.551534	276.795410	498.580994	-64.756630	111.325203	350.204865	-13.396891	-39.164509	173.690903	-135.017929	-74.137047	205.714279	-192.355240	49.012596	45.108063	-172.006622	567.276733	632.824585	-427.027832	594.690979	519.977173	-377.282257	626.281189	330.062714	-418.023987	652.965698	65.364357	-309.922699	599.487732	69.561218	-252.921906	810.212097	49.502335	-282.020203
